<svg xmlns="http://www.w3.org/2000/svg" version="1.1" viewBox="-5.0 -10.0 110.0 135.0">
 <path d="m18.988 47.055v-24.074h-1.3359c-1.0039 0-1.9219 0.41016-2.582 1.0703-0.66016 0.66016-1.0703 1.5781-1.0703 2.582v24.93l1.4492 1.4414c0.30469-0.15625 0.62109-0.30078 0.94922-0.43359 0.31641-0.13281 0.64062-0.25 0.96484-0.35547v-3.668c0-0.82812 0.67188-1.5 1.5-1.5h0.13281zm57.023-17.879c-0.82812 0-1.5-0.67188-1.5-1.5s0.67188-1.5 1.5-1.5h3.8672c0.82812 0 1.5 0.67188 1.5 1.5s-0.67188 1.5-1.5 1.5zm-8.4453 0c-0.82812 0-1.5-0.67188-1.5-1.5s0.67188-1.5 1.5-1.5h3.8672c0.82812 0 1.5 0.67188 1.5 1.5s-0.67188 1.5-1.5 1.5zm-8.4453 0c-0.82812 0-1.5-0.67188-1.5-1.5s0.67188-1.5 1.5-1.5h3.8672c0.82812 0 1.5 0.67188 1.5 1.5s-0.67188 1.5-1.5 1.5zm-16.5 26.23c-0.82812 0-1.5-0.67188-1.5-1.5s0.67188-1.5 1.5-1.5h6.1875c0.82812 0 1.5 0.67188 1.5 1.5s-0.67188 1.5-1.5 1.5zm-8.3789-7.2227c-0.82813 0-1.5-0.67188-1.5-1.5s0.67187-1.5 1.5-1.5h14.566c0.82812 0 1.5 0.67188 1.5 1.5s-0.67188 1.5-1.5 1.5zm-8.2383-7.2188c-0.82812 0-1.5-0.67188-1.5-1.5s0.67188-1.5 1.5-1.5h22.805c0.82812 0 1.5 0.67188 1.5 1.5s-0.67188 1.5-1.5 1.5zm2.0586-15.57h18.699c0.97656 0 1.8711 0.39844 2.5156 1.043 0.64453 0.64453 1.043 1.5312 1.043 2.5156v2.6484c0 0.97656-0.39844 1.8711-1.043 2.5156-0.64453 0.64453-1.5352 1.043-2.5156 1.043h-18.699c-0.98047 0-1.8711-0.39844-2.5156-1.043-0.64453-0.64453-1.043-1.5352-1.043-2.5156v-2.6484c0-0.98047 0.39844-1.8711 1.043-2.5156s1.5312-1.043 2.5156-1.043zm18.699 3h-18.699c-0.14844 0-0.28906 0.0625-0.39453 0.16406-0.10156 0.10156-0.16406 0.24219-0.16406 0.39453v2.6484c0 0.14844 0.0625 0.28906 0.16406 0.39453 0.10156 0.10156 0.24219 0.16406 0.39453 0.16406h18.699c0.14844 0 0.28906-0.0625 0.39453-0.16406 0.10156-0.10156 0.16406-0.24219 0.16406-0.39453v-2.6484c0-0.14844-0.0625-0.28906-0.16406-0.39453-0.10156-0.10156-0.24219-0.16406-0.39453-0.16406zm-25.172 29.18c2.0898 0 3.9805 0.84766 5.3477 2.2188 1.3672 1.3672 2.2188 3.2617 2.2188 5.3477 0 2.0898-0.84766 3.9805-2.2188 5.3477-1.3672 1.3672-3.2617 2.2188-5.3477 2.2188-2.0898 0-3.9805-0.84766-5.3477-2.2148-1.3672-1.3672-2.2148-3.2617-2.2148-5.3477 0-2.0898 0.84766-3.9805 2.2148-5.3477 1.3672-1.3672 3.2617-2.2188 5.3477-2.2188zm3.2266 4.3398c-0.82422-0.82422-1.9688-1.3398-3.2266-1.3398-1.2617 0-2.4023 0.51172-3.2266 1.3398-0.82422 0.82422-1.3359 1.9688-1.3359 3.2266 0 1.2617 0.51172 2.4023 1.3359 3.2266 0.82422 0.82422 1.9688 1.3359 3.2266 1.3359 1.2617 0 2.4023-0.51172 3.2266-1.3398 0.82422-0.82422 1.3398-1.9688 1.3398-3.2266 0-1.2617-0.51172-2.4023-1.3398-3.2266zm-13.82-11.703v-23.578c0-1.8281 0.75-3.4922 1.9531-4.6992 1.2109-1.2109 2.8789-1.9609 4.7031-1.9609h1.3359v-3.3359c0-1.9023 0.77734-3.6328 2.0273-4.8828s2.9805-2.0273 4.8828-2.0273h55.691c1.9023 0 3.6328 0.77734 4.8828 2.0273s2.0273 2.9805 2.0273 4.8828v3.3359h1.3359c1.8281 0 3.4922 0.75 4.6992 1.9531 1.2109 1.2109 1.9609 2.8789 1.9609 4.7031v40.992c0 1.832-0.75 3.4961-1.9531 4.7031-1.207 1.207-2.8711 1.9531-4.7031 1.9531h-30.711l2.4766 12.98h5.2891c0.82812 0 1.5 0.67188 1.5 1.5 0 0.82813-0.67188 1.5-1.5 1.5h-10.938l-8.8281 0.003907-0.078125-0.003907h-6.4492c-0.82812 0-1.5-0.67187-1.5-1.5 0-0.82812 0.67188-1.5 1.5-1.5h5.2891l2.4766-12.98h-11.762c0.27344 0.55859 0.17578 1.2539-0.28906 1.7148l-3.8633 3.8594c-0.58203 0.58594-1.5312 0.58984-2.1133 0.007813l-2.5977-2.5938c-0.30469 0.15625-0.62109 0.30078-0.94531 0.43359-0.31641 0.13281-0.64062 0.25-0.96484 0.35547v3.668c0 0.82812-0.67188 1.5-1.5 1.5h-5.4648c-0.82813 0-1.5-0.67188-1.5-1.5v-3.668c-0.32813-0.10547-0.64844-0.22656-0.96484-0.35547-0.32422-0.13672-0.64062-0.27734-0.94922-0.43359l-2.5938 2.5938c-0.58594 0.58594-1.5352 0.58594-2.1211 0l-3.8594-3.8633c-0.58594-0.58203-0.58984-1.5312-0.007812-2.1133l2.5898-2.5938c-0.15625-0.30469-0.30078-0.62109-0.43359-0.94141l-0.35547-0.97266h-3.6641c-0.82812 0-1.5-0.67188-1.5-1.5v-5.4648c0-0.82812 0.67188-1.5 1.5-1.5h3.6641c0.10938-0.32812 0.22656-0.65625 0.35938-0.97266l0.43359-0.9375-2.5938-2.5938c-0.58594-0.58594-0.58594-1.5352 0-2.1211l3.8633-3.8594c0.082031-0.082031 0.17188-0.15234 0.26562-0.21094zm21.066 23.656-0.027344-0.023438-0.023437-0.027344-1.2109-1.2109c-0.48047-0.48438-0.58984-1.25-0.21094-1.8516 0.30078-0.48047 0.5625-0.97656 0.77344-1.4805l0.027344-0.070313c0.21094-0.50781 0.38281-1.0312 0.51172-1.5664 0.11719-0.71484 0.73438-1.2617 1.4805-1.2617h3.2969v-2.4648h-3.2969c-0.68359-0.003906-1.3008-0.47266-1.457-1.168l-0.003906-0.019532-0.003906-0.007812v-0.003906l-0.035157-0.15234v-0.007813l-0.003906-0.015625c-0.125-0.5-0.28906-0.98828-0.48438-1.4609-0.21484-0.51562-0.47266-1.0156-0.76562-1.4883-0.40625-0.58594-0.34766-1.3945 0.17188-1.918l2.3359-2.3359-1.7422-1.7422-2.3359 2.3359c-0.48438 0.48047-1.25 0.58984-1.8516 0.21094-0.48047-0.30078-0.97656-0.5625-1.4805-0.77344l-0.070312-0.027343c-0.50781-0.21094-1.0312-0.38281-1.5664-0.51172-0.71484-0.11719-1.2617-0.73438-1.2617-1.4805v-3.3008h-2.4648v3.3008c-0.003906 0.68359-0.47266 1.3008-1.168 1.457-0.57422 0.13281-1.1328 0.3125-1.6641 0.53125-0.50391 0.20703-1.0039 0.46875-1.4883 0.76562-0.58203 0.40625-1.3945 0.34766-1.9141-0.17188l-2.3359-2.3359-1.7422 1.7422 2.3359 2.3359c0.48047 0.48438 0.58984 1.25 0.21094 1.8516-0.30078 0.48047-0.5625 0.97656-0.77344 1.4805l-0.027344 0.070312c-0.21094 0.50781-0.38281 1.0312-0.51172 1.5664-0.11719 0.71484-0.73438 1.2617-1.4805 1.2617h-3.2969v2.4648h3.2969c0.68359 0.003907 1.3008 0.47266 1.457 1.168 0.125 0.55078 0.29688 1.082 0.5 1.5938l0.03125 0.066406c0.21484 0.51562 0.47266 1.0156 0.76562 1.4922 0.40625 0.58594 0.34766 1.3945-0.17188 1.918l-2.3359 2.3359 1.7422 1.7422 2.3359-2.3359c0.48438-0.48047 1.25-0.58984 1.8516-0.21094 0.50391 0.3125 1.0273 0.58594 1.5547 0.80469 0.50391 0.20703 1.0273 0.37891 1.5703 0.51172 0.71484 0.11719 1.2617 0.73438 1.2617 1.4805v3.2969h2.4648v-3.3008c0-0.67969 0.46875-1.2969 1.1602-1.457 0.58203-0.13672 1.1445-0.31641 1.6719-0.53516 0.50781-0.21094 1.0039-0.46875 1.4883-0.76172 0.58594-0.40625 1.3945-0.34766 1.9141 0.17188l2.3359 2.3359 1.7422-1.7422-1.0703-1.0742zm1.6602-2.5859h56.117c1.0039 0 1.9219-0.41016 2.582-1.0742 0.66406-0.66406 1.0742-1.5781 1.0742-2.582v-40.992c0-1.0039-0.41016-1.9219-1.0703-2.582-0.66016-0.66016-1.5781-1.0703-2.582-1.0703h-1.3359v33.887c0 1.9023-0.77734 3.6328-2.0273 4.8828s-2.9805 2.0273-4.8828 2.0273h-41.914v4.0977c0 0.82812-0.67188 1.5-1.5 1.5h-3.6641c-0.10938 0.33203-0.22656 0.65625-0.35938 0.97656l-0.43359 0.9375zm0.74609-10.508h47.117c1.0742 0 2.0547-0.44141 2.7617-1.1484 0.71094-0.71094 1.1484-1.6875 1.1484-2.7617v-33.887h-63.52v24.074h2.3359c0.82812 0 1.5 0.67188 1.5 1.5v3.6641c0.32812 0.10938 0.65625 0.22656 0.97266 0.35938l0.9375 0.43359 2.5938-2.5938c0.58594-0.58594 1.5352-0.58594 2.1211 0l3.8594 3.8633c0.58594 0.58203 0.58984 1.5312 0.007813 2.1133l-2.5898 2.5938c0.15625 0.30469 0.30078 0.62109 0.43359 0.9375 0.11328 0.27734 0.21875 0.55469 0.31641 0.84375zm14.465 26.492h9.625l-2.4766-12.98h-4.6719zm36.57-67.289v-3.3359c0-1.0742-0.44141-2.0547-1.1484-2.7617-0.71094-0.71094-1.6875-1.1484-2.7617-1.1484h-55.691c-1.0742 0-2.0547 0.44141-2.7617 1.1484-0.71094 0.71094-1.1484 1.6875-1.1484 2.7617v3.3359h63.52zm-17.07 17.934c0.14062-0.81641 0.91797-1.3633 1.7344-1.2188 0.81641 0.14062 1.3633 0.91797 1.2188 1.7344l-3.293 18.82c-0.14062 0.81641-0.91797 1.3633-1.7344 1.2188-0.81641-0.14062-1.3633-0.91797-1.2188-1.7344zm3.8125 3.1875c-0.58594-0.58594-0.58594-1.5352 0-2.1211 0.58594-0.58594 1.5352-0.58594 2.1211 0l7.543 7.543c0.58594 0.58594 0.58594 1.5352 0 2.1211l-7.543 7.5391c-0.58594 0.58594-1.5352 0.58594-2.1211 0-0.58594-0.58594-0.58594-1.5352 0-2.1211l6.4805-6.4805zm-10.09-2.1211c0.58594-0.58594 1.5352-0.58594 2.1211 0 0.58594 0.58594 0.58594 1.5352 0 2.1211l-6.4805 6.4805 6.4805 6.4805c0.58594 0.58594 0.58594 1.5352 0 2.1211-0.58594 0.58594-1.5352 0.58594-2.1211 0l-7.5391-7.5391c-0.58594-0.58594-0.58594-1.5352 0-2.1211zm-17.969-20.789c-0.82812 0-1.5-0.67188-1.5-1.5s0.67188-1.5 1.5-1.5h2.2891c0.82813 0 1.5 0.67188 1.5 1.5s-0.67187 1.5-1.5 1.5zm-8.207 0c-0.82812 0-1.5-0.67188-1.5-1.5s0.67188-1.5 1.5-1.5h2.2891c0.82812 0 1.5 0.67188 1.5 1.5s-0.67188 1.5-1.5 1.5zm-8.207 0c-0.82813 0-1.5-0.67188-1.5-1.5s0.67187-1.5 1.5-1.5h2.2891c0.82812 0 1.5 0.67188 1.5 1.5s-0.67188 1.5-1.5 1.5z"/>
<text x="0.0" y="117.5" font-size="5.0" font-weight="bold" font-family="Arbeit Regular, Helvetica, Arial-Unicode, Arial, Sans-serif" fill="#000000">Created by Riyuv</text><text x="0.0" y="122.5" font-size="5.0" font-weight="bold" font-family="Arbeit Regular, Helvetica, Arial-Unicode, Arial, Sans-serif" fill="#000000">from Noun Project</text></svg>